<svg width="190" height="176" viewBox="0 0 190 176" fill="none" xmlns="http://www.w3.org/2000/svg">
<path d="M76.8749 152.391C76.9732 152.433 77.0432 152.497 77.0849 152.584C77.1122 152.676 77.1033 152.771 77.0581 152.868L72.6307 162.331C72.581 162.437 72.5131 162.507 72.427 162.54C72.3266 162.579 72.2272 162.577 72.1289 162.536L71.3918 162.225C71.2345 162.159 71.1429 162.028 71.117 161.832L70.7455 154.665L64.8662 159.195C64.8194 159.245 64.7553 159.281 64.6737 159.305C64.5823 159.324 64.4874 159.313 64.3892 159.272L63.6668 158.967C63.5587 158.921 63.491 158.852 63.4636 158.76C63.422 158.673 63.426 158.576 63.4757 158.47L67.903 149.006C67.9482 148.91 68.0211 148.842 68.1215 148.803C68.2174 148.774 68.3145 148.781 68.4128 148.822L69.1352 149.127C69.2335 149.168 69.3034 149.233 69.3451 149.32C69.3725 149.412 69.3635 149.507 69.3183 149.603L65.9825 156.733L70.6548 153.047C70.848 152.886 71.0527 152.851 71.2689 152.942L71.726 153.135C71.9422 153.226 72.052 153.394 72.0553 153.638L72.3218 159.407L75.6575 152.277C75.7027 152.18 75.7756 152.113 75.876 152.074C75.9621 152.041 76.0543 152.045 76.1526 152.087L76.8749 152.391Z" fill="white"/>
<path d="M66.6646 147.687C66.7351 147.735 66.7779 147.803 66.7929 147.89C66.8079 147.978 66.7902 148.056 66.7398 148.125C66.6894 148.194 66.6503 148.238 66.6226 148.258L57.2269 154.372C57.0177 154.513 56.8074 154.512 56.596 154.367L55.6973 153.754C55.4859 153.61 55.4143 153.419 55.4825 153.181L58.3365 142.603L58.4141 142.443C58.4645 142.374 58.5351 142.332 58.6258 142.316C58.7165 142.301 58.797 142.317 58.8675 142.365L59.5415 142.825C59.6384 142.891 59.6976 142.964 59.7189 143.043C59.7339 143.131 59.7313 143.206 59.7111 143.27L59.0952 145.599L63.4299 148.557L65.4995 147.221C65.5549 147.181 65.6324 147.156 65.7319 147.147C65.8163 147.14 65.9025 147.167 65.9906 147.227L66.6646 147.687ZM58.6652 146.97L57.0923 152.77L62.2334 149.406L58.6652 146.97Z" fill="white"/>
<path d="M56.989 140.355C57.0668 140.428 57.1104 140.513 57.1199 140.609C57.1141 140.706 57.0737 140.792 56.9987 140.868L49.643 148.311C49.568 148.387 49.4847 148.425 49.393 148.427C49.2861 148.429 49.1937 148.394 49.1159 148.321L48.4975 147.74C48.4197 147.667 48.3837 147.583 48.3895 147.486C48.38 147.389 48.4128 147.303 48.4878 147.227L55.8434 139.785C55.9184 139.709 56.0094 139.67 56.1163 139.668C56.208 139.666 56.2927 139.702 56.3705 139.775L56.989 140.355Z" fill="white"/>
<path d="M50.4924 132.967C51.0404 133.662 51.4055 134.349 51.5876 135.028C51.7631 135.699 51.7783 136.304 51.6332 136.844C51.4796 137.389 51.2014 137.829 50.7988 138.163C50.7309 138.214 50.6517 138.234 50.5611 138.223C50.4555 138.209 50.373 138.165 50.3136 138.09L49.8084 137.449C49.683 137.29 49.682 137.116 49.8055 136.928C50.1025 136.581 50.2397 136.135 50.217 135.589C50.1876 135.035 49.9187 134.436 49.4103 133.791C48.8623 133.095 48.3265 132.666 47.8031 132.501C47.2712 132.343 46.7803 132.435 46.3305 132.778C46.042 132.998 45.8779 133.263 45.8384 133.575C45.7922 133.878 45.8333 134.249 45.9616 134.687C46.09 135.126 46.3164 135.758 46.641 136.583C46.9693 137.379 47.1792 138.05 47.2708 138.597C47.3624 139.144 47.3271 139.633 47.165 140.065C47.0028 140.497 46.6841 140.893 46.2089 141.255C45.7506 141.604 45.2433 141.796 44.6868 141.831C44.1238 141.858 43.5589 141.718 42.9921 141.412C42.4167 141.113 41.8782 140.645 41.3763 140.008C40.8613 139.355 40.5377 138.703 40.4056 138.053C40.2649 137.41 40.2771 136.831 40.442 136.316C40.607 135.802 40.8611 135.401 41.2043 135.113C41.2722 135.061 41.3514 135.041 41.442 135.052C41.5259 135.055 41.6009 135.099 41.6669 135.183L42.1919 135.849C42.3305 136.025 42.3357 136.195 42.2075 136.36C41.8907 136.681 41.7531 137.101 41.7946 137.619C41.8277 138.143 42.049 138.665 42.4584 139.185C42.9074 139.754 43.371 140.118 43.8491 140.277C44.3273 140.436 44.7828 140.35 45.2156 140.021C45.5041 139.801 45.6823 139.545 45.7502 139.252C45.8114 138.951 45.7888 138.586 45.6821 138.158C45.567 137.736 45.3575 137.151 45.0537 136.404C44.6877 135.543 44.4489 134.827 44.3376 134.255C44.2177 133.69 44.2355 133.187 44.3911 132.747C44.5381 132.313 44.8493 131.915 45.3245 131.553C46.1138 130.952 46.971 130.782 47.8962 131.043C48.8214 131.304 49.6868 131.945 50.4924 132.967Z" fill="white"/>
<path d="M43.8039 122.006C43.8415 122.106 43.8436 122.202 43.8102 122.295C43.763 122.382 43.6896 122.444 43.59 122.482L33.8314 126.214C33.7218 126.256 33.6258 126.259 33.5435 126.222C33.4474 126.179 33.3805 126.107 33.3429 126.007L33.0607 125.259C33.0005 125.099 33.0313 124.939 33.153 124.778L37.9996 119.31L30.7598 118.43C30.6925 118.433 30.6227 118.414 30.5503 118.373C30.4741 118.322 30.4173 118.247 30.3796 118.147L30.1031 117.414C30.0617 117.304 30.0646 117.206 30.1117 117.119C30.1452 117.026 30.2167 116.959 30.3263 116.917L40.0849 113.185C40.1845 113.147 40.2824 113.149 40.3785 113.193C40.4646 113.24 40.5264 113.313 40.5641 113.413L40.8406 114.146C40.8783 114.246 40.8804 114.343 40.8469 114.435C40.7998 114.522 40.7264 114.584 40.6267 114.622L33.2741 117.434L39.0886 118.071C39.3354 118.091 39.5003 118.211 39.583 118.43L39.758 118.894C39.8408 119.114 39.7964 119.314 39.6248 119.494L35.7012 123.872L43.0538 121.06C43.1534 121.022 43.2513 121.024 43.3474 121.068C43.4297 121.105 43.4897 121.173 43.5273 121.273L43.8039 122.006Z" fill="white"/>
<path d="M39.8106 106.713C40.0269 108.094 39.8374 109.227 39.2421 110.112C38.6347 110.989 37.6095 111.576 36.1667 111.875C35.8533 111.942 35.4077 112.026 34.8301 112.129C34.2524 112.231 33.8104 112.304 33.5042 112.347C32.0797 112.557 30.9388 112.336 30.0814 111.687C29.2135 111.039 28.6755 110.051 28.4674 108.724C28.261 107.406 28.4696 106.292 29.0931 105.38C29.7062 104.47 30.7183 103.868 32.1296 103.574C32.7355 103.445 33.1749 103.357 33.448 103.308C33.7106 103.262 34.1586 103.193 34.7921 103.102C36.2481 102.888 37.3979 103.096 38.2415 103.726C39.0729 104.347 39.596 105.343 39.8106 106.713ZM38.4715 106.951C38.3411 106.118 37.985 105.499 37.4032 105.093C36.8215 104.687 36.0074 104.555 34.961 104.697C34.3275 104.788 33.9058 104.852 33.6957 104.889C33.4646 104.93 33.0462 105.015 32.4403 105.144C31.4071 105.37 30.6781 105.781 30.2532 106.376C29.8267 106.961 29.6778 107.664 29.8066 108.486C29.937 109.319 30.2939 109.943 30.8773 110.36C31.4591 110.766 32.2732 110.898 33.3196 110.755C33.6258 110.712 34.0467 110.643 34.5824 110.548C35.1075 110.455 35.5268 110.375 35.8403 110.309C36.8734 110.082 37.6033 109.677 38.0298 109.092C38.4547 108.497 38.602 107.783 38.4715 106.951Z" fill="white"/>
<path d="M39.2002 99.6351C39.1957 99.7416 39.1599 99.8319 39.0928 99.9058C39.0155 99.9689 38.9235 100 38.8169 99.9988L28.3695 99.8875C28.2521 99.8863 28.1628 99.8533 28.1015 99.7887C28.0299 99.7133 27.9964 99.6223 28.0008 99.5158L28.152 95.8869C28.219 94.2776 28.6301 93.1198 29.3851 92.4135C30.1295 91.7071 31.2277 91.3456 32.6796 91.3291C32.9893 91.3217 33.4055 91.3208 33.9282 91.3264C34.4508 91.332 34.8719 91.3418 35.1914 91.3558C36.2034 91.3986 37.0229 91.5779 37.65 91.8938C38.2668 92.1989 38.7164 92.6782 38.9986 93.3316C39.2808 93.985 39.3995 94.8499 39.3547 95.9263L39.2002 99.6351ZM37.9914 95.9917C38.0221 95.2564 37.9449 94.6744 37.7601 94.246C37.5756 93.8069 37.2687 93.4891 36.8394 93.2926C36.3999 93.0853 35.8072 92.9671 35.0615 92.9378C34.4224 92.9097 34.0229 92.8947 33.8629 92.893C33.6922 92.8912 33.2971 92.8977 32.6776 92.9124C31.6208 92.9225 30.8424 93.1647 30.3425 93.6392C29.8318 94.1136 29.5539 94.8943 29.5086 95.9813L29.4107 98.3313L37.8902 98.4216L37.9914 95.9917Z" fill="white"/>
<path d="M40.4382 88.1226C40.4138 88.2264 40.3617 88.3086 40.2819 88.369C40.194 88.4169 40.0977 88.4307 39.993 88.4102L29.7392 86.4049C29.6241 86.3824 29.5424 86.3338 29.4942 86.2592C29.438 86.1722 29.4221 86.0768 29.4464 85.9729L30.9561 79.5397C30.9805 79.4358 31.0366 79.3599 31.1245 79.3119C31.2044 79.2515 31.3019 79.2326 31.417 79.2551L32.0137 79.3718C32.1184 79.3923 32.2001 79.4408 32.2587 79.5175C32.3069 79.5921 32.3176 79.6865 32.2908 79.8007L31.048 85.0968L34.4868 85.7694L35.6492 80.8159C35.6736 80.7121 35.7297 80.6362 35.8176 80.5882C35.8975 80.5278 35.995 80.5089 36.1102 80.5314L36.6912 80.645C36.7959 80.6655 36.8763 80.7192 36.9325 80.8062C36.9807 80.8808 36.9926 80.9701 36.9683 81.0739L35.8059 86.0273L39.3703 86.7244L40.6424 81.3037C40.6692 81.1895 40.7213 81.1073 40.7987 81.0573C40.8762 81.0073 40.9725 80.9935 41.0876 81.0161L41.7 81.1358C41.8047 81.1563 41.8852 81.21 41.9414 81.2971C41.9896 81.3717 42.0015 81.4609 41.9771 81.5647L40.4382 88.1226Z" fill="white"/>
<path d="M43.3847 78.3675C43.3421 78.4653 43.276 78.5368 43.1866 78.582C43.0915 78.6135 42.9942 78.6098 42.8949 78.571L33.1626 74.7706C33.0533 74.7279 32.9816 74.6656 32.9476 74.5837C32.9079 74.4881 32.9093 74.3914 32.9519 74.2936L34.5115 70.7146C35.0016 69.5901 35.6534 68.8148 36.4669 68.3887C37.2804 67.9626 38.1939 67.9475 39.2074 68.3432C39.9625 68.6381 40.5026 69.0664 40.8275 69.6281C41.1567 70.18 41.2708 70.8253 41.1698 71.564L46.1186 70.8532C46.191 70.8472 46.2521 70.8539 46.3018 70.8733C46.3813 70.9043 46.4359 70.9657 46.4657 71.0574C46.4997 71.1394 46.4997 71.2195 46.4656 71.2977L46.1588 72.0017C46.0949 72.1484 46.009 72.2522 45.9011 72.313C45.7974 72.3641 45.6661 72.3986 45.5071 72.4166L40.7947 73.0652L39.6761 75.6321L43.5213 77.1336C43.6207 77.1724 43.6902 77.2396 43.7299 77.3352C43.7597 77.4269 43.7533 77.5217 43.7107 77.6195L43.3847 78.3675ZM39.4639 72.7172C40.0988 71.2602 39.7953 70.2892 38.5533 69.8042C37.3113 69.3192 36.3728 69.8052 35.7379 71.2622L34.6832 73.6824L38.4092 75.1374L39.4639 72.7172Z" fill="white"/>
<path d="M48.3521 68.634C48.2918 68.722 48.2136 68.7796 48.1173 68.8069C48.0182 68.8197 47.9235 68.7975 47.8335 68.7403L39.0134 63.1398C38.9143 63.0769 38.8558 63.0019 38.838 62.9148C38.8171 62.8132 38.8368 62.7183 38.8971 62.6303L39.3129 62.023C39.4214 61.8646 39.5597 61.7946 39.728 61.8131L49.6177 61.8041L42.8641 57.5158C42.7651 57.4529 42.7066 57.3779 42.6888 57.2908C42.6679 57.1892 42.6876 57.0944 42.7479 57.0063L43.1818 56.3727C43.2481 56.2758 43.3308 56.221 43.43 56.2083C43.5262 56.181 43.6238 56.1988 43.7229 56.2616L52.5295 61.8536C52.6196 61.9108 52.675 61.9902 52.6959 62.0918C52.7227 62.1846 52.706 62.2751 52.6458 62.3631L52.2119 62.9968C52.1215 63.1288 51.9861 63.1944 51.8058 63.1935L41.9927 63.2322L48.6922 67.4862C48.7823 67.5433 48.8377 67.6228 48.8586 67.7244C48.8704 67.8203 48.8462 67.9123 48.786 68.0003L48.3521 68.634Z" fill="white"/>
<path d="M58.2661 56.8962C57.2761 57.8823 56.2466 58.396 55.1776 58.4373C54.1084 58.4638 53.0262 57.9841 51.9308 56.9982C51.6917 56.7848 51.3599 56.4757 50.9353 56.0708C50.5108 55.6659 50.1904 55.3529 49.9742 55.1318C48.9624 54.1078 48.466 53.0596 48.4849 51.9872C48.4962 50.9075 48.9779 49.8934 49.9302 48.9449C50.8748 48.004 51.9008 47.5163 53.0081 47.482C54.1076 47.4403 55.1935 47.9014 56.2657 48.8652C56.7285 49.2772 57.0602 49.5788 57.2609 49.7703C57.4539 49.9543 57.7743 50.2747 58.2223 50.7315C59.2573 51.7776 59.7689 52.8257 59.7574 53.8757C59.7457 54.9107 59.2486 55.9176 58.2661 56.8962ZM57.282 55.9575C57.879 55.3628 58.1699 54.7119 58.1546 54.0047C58.1393 53.2975 57.7647 52.5644 57.0308 51.8054C56.5828 51.3487 56.2817 51.0466 56.1273 50.8994C55.9575 50.7374 55.6412 50.4505 55.1784 50.0385C54.384 49.3397 53.6202 48.9943 52.887 49.0023C52.1613 49.0027 51.5037 49.2964 50.9143 49.8836C50.3172 50.4783 50.0226 51.1329 50.0303 51.8477C50.0456 52.5548 50.4202 53.2879 51.1541 54.0469C51.3704 54.2679 51.6753 54.5662 52.069 54.9417C52.4549 55.3098 52.7674 55.6005 53.0065 55.8138C53.8009 56.5126 54.5609 56.8618 55.2866 56.8614C56.0198 56.8534 56.685 56.5521 57.282 55.9575Z" fill="white"/>
<path d="M69.0379 48.5417C68.9447 48.5936 68.8498 48.6099 68.753 48.5906C68.6604 48.5568 68.5878 48.4934 68.5353 48.4006L63.3932 39.3055C63.3355 39.2034 63.3188 39.1089 63.3432 39.022C63.3717 38.9206 63.4325 38.844 63.5256 38.792L69.2968 35.5735C69.39 35.5215 69.4829 35.5124 69.5755 35.5463C69.6722 35.5656 69.7494 35.6264 69.8072 35.7285L70.1064 36.2578C70.1589 36.3506 70.1756 36.4451 70.1564 36.5413C70.1321 36.6282 70.0686 36.7002 69.9661 36.7573L65.2151 39.407L66.9396 42.4573L71.3833 39.979C71.4764 39.9271 71.5693 39.918 71.662 39.9518C71.7587 39.9712 71.8359 40.0319 71.8936 40.1341L72.185 40.6494C72.2375 40.7423 72.2495 40.8394 72.2211 40.9407C72.1967 41.0276 72.1379 41.097 72.0447 41.149L67.6011 43.6272L69.3886 46.7889L74.2515 44.0769C74.354 44.0197 74.4489 44.0034 74.5363 44.028C74.6237 44.0525 74.6962 44.1158 74.754 44.218L75.0611 44.7612C75.1136 44.854 75.1256 44.9511 75.0972 45.0525C75.0728 45.1394 75.014 45.2088 74.9208 45.2608L69.0379 48.5417Z" fill="white"/>
<path d="M84.1858 41.9138C84.0818 41.9375 83.9868 41.9263 83.9008 41.8802C83.8231 41.8214 83.7732 41.7397 83.7513 41.6353L81.6027 31.4106C81.5786 31.2958 81.5911 31.2 81.6404 31.1232C81.6978 31.0335 81.7786 30.9769 81.8826 30.9532L82.6626 30.7757C82.8291 30.7379 82.9818 30.7906 83.1209 30.934L87.7421 36.5109L89.7359 29.429C89.7435 29.3616 89.7731 29.2948 89.8245 29.2284C89.8863 29.1596 89.9693 29.1134 90.0733 29.0897L90.8377 28.9158C90.9521 28.8898 91.0482 28.9062 91.126 28.9651C91.212 29.0111 91.267 29.0916 91.2911 29.2064L93.4397 39.4311C93.4616 39.5355 93.4439 39.6325 93.3864 39.7221C93.3268 39.8013 93.2449 39.8528 93.1409 39.8764L92.3765 40.0504C92.2725 40.074 92.1775 40.0628 92.0915 40.0168C92.0138 39.9579 91.9639 39.8763 91.942 39.7719L90.3231 32.0681L88.7904 37.7654C88.7324 38.0083 88.589 38.1557 88.3602 38.2078L87.8766 38.3178C87.6478 38.3699 87.4583 38.2981 87.3082 38.1026L83.6146 33.5944L85.2334 41.2981C85.2553 41.4025 85.2376 41.4995 85.1801 41.5892C85.1309 41.666 85.0543 41.7163 84.9502 41.7399L84.1858 41.9138Z" fill="white"/>
<path d="M95.4087 39.7544C95.3234 39.7572 95.2487 39.7276 95.1845 39.6657C95.1203 39.6038 95.088 39.5301 95.0877 39.4448C95.0874 39.3595 95.0925 39.3006 95.1031 39.2683L99.0316 28.7878C99.1161 28.5503 99.2862 28.4275 99.5421 28.4192L100.63 28.3839C100.885 28.3756 101.056 28.4874 101.143 28.7193L105.13 38.9432L105.162 39.1181C105.163 39.2035 105.131 39.2792 105.067 39.3452C105.004 39.4113 104.929 39.4457 104.844 39.4485L104.028 39.4749C103.911 39.4787 103.82 39.455 103.756 39.4038C103.692 39.3418 103.649 39.2792 103.627 39.2159L102.74 36.9724L97.4944 37.1425L96.6231 39.443C96.602 39.5077 96.5542 39.5733 96.4798 39.6397C96.4161 39.6951 96.3309 39.7245 96.2243 39.728L95.4087 39.7544ZM102.271 35.6115L100.092 30.0015L97.9532 35.7515L102.271 35.6115Z" fill="white"/>
<path d="M107.753 39.9229C107.647 39.9107 107.562 39.8686 107.497 39.7967C107.445 39.7156 107.427 39.6222 107.443 39.5168L109.012 29.171C109.028 29.0656 109.072 28.9849 109.145 28.929C109.231 28.8637 109.326 28.8372 109.432 28.8495L110.275 28.947C110.381 28.9593 110.46 29.006 110.512 29.0872C110.577 29.1591 110.601 29.2477 110.585 29.3532L109.016 39.6989C109 39.8044 108.95 39.8897 108.864 39.955C108.791 40.0109 108.702 40.0327 108.596 40.0205L107.753 39.9229Z" fill="white"/>
<path d="M117.492 41.9265C116.636 41.7001 115.935 41.371 115.387 40.9394C114.849 40.5105 114.481 40.0382 114.282 39.5225C114.087 38.9966 114.055 38.4811 114.187 37.9758C114.212 37.8942 114.265 37.831 114.346 37.7862C114.44 37.7339 114.533 37.72 114.626 37.7446L115.415 37.9533C115.611 38.0052 115.714 38.1427 115.723 38.3657C115.685 38.8187 115.836 39.2554 116.175 39.676C116.525 40.0993 117.097 40.416 117.891 40.6261C118.746 40.8526 119.436 40.8752 119.96 40.6941C120.487 40.5027 120.833 40.1367 120.998 39.5961C121.104 39.2494 121.082 38.9402 120.931 38.6687C120.79 38.4 120.539 38.1294 120.176 37.8571C119.814 37.5848 119.258 37.2171 118.508 36.754C117.772 36.3168 117.206 35.9079 116.81 35.5274C116.413 35.1469 116.154 34.7366 116.033 34.2965C115.911 33.8564 115.938 33.3507 116.113 32.7795C116.281 32.2288 116.582 31.7737 117.016 31.4142C117.459 31.0575 118.002 30.8318 118.644 30.7371C119.289 30.6322 120.004 30.6834 120.788 30.8908C121.592 31.1036 122.239 31.4292 122.729 31.8676C123.222 32.2958 123.553 32.7636 123.721 33.2711C123.889 33.7786 123.917 34.2493 123.807 34.6831C123.782 34.7647 123.729 34.8279 123.648 34.8728C123.578 34.9203 123.491 34.9304 123.388 34.9032L122.568 34.6862C122.352 34.6289 122.247 34.4966 122.255 34.2891C122.324 33.8444 122.19 33.4284 121.851 33.0411C121.516 32.6437 121.029 32.3604 120.389 32.1912C119.688 32.0057 119.096 31.9923 118.613 32.151C118.129 32.3098 117.808 32.6493 117.649 33.1694C117.543 33.5162 117.548 33.8264 117.665 34.0999C117.792 34.3761 118.025 34.6527 118.364 34.9298C118.706 35.1967 119.22 35.5368 119.907 35.9502C120.712 36.4167 121.328 36.8443 121.755 37.233C122.186 37.6115 122.467 38.0221 122.599 38.465C122.734 38.8977 122.714 39.3996 122.539 39.9707C122.248 40.9193 121.649 41.5656 120.741 41.9097C119.833 42.2538 118.75 42.2594 117.492 41.9265Z" fill="white"/>
<path d="M129.791 46.6501C129.7 46.5954 129.639 46.522 129.61 46.4299C129.596 46.3344 129.617 46.2419 129.675 46.1523L135.349 37.3793C135.413 37.2808 135.49 37.2211 135.579 37.2001C135.684 37.1757 135.782 37.1909 135.874 37.2456L141.546 40.6348C141.638 40.6895 141.691 40.7647 141.705 40.8602C141.735 40.9522 141.718 41.0475 141.654 41.146L141.324 41.6565C141.266 41.7461 141.189 41.8058 141.093 41.8357C141.004 41.8566 140.909 41.837 140.808 41.7768L136.138 38.9866L134.235 41.9289L138.603 44.5385C138.694 44.5932 138.747 44.6683 138.762 44.7639C138.791 44.8559 138.774 44.9512 138.71 45.0497L138.389 45.5468C138.331 45.6364 138.249 45.6933 138.145 45.7177C138.055 45.7387 137.964 45.7218 137.873 45.6671L133.505 43.0574L131.533 46.1072L136.312 48.963C136.413 49.0232 136.474 49.0965 136.494 49.1831C136.514 49.2697 136.492 49.3622 136.429 49.4607L136.09 49.9847C136.032 50.0743 135.95 50.1312 135.846 50.1556C135.756 50.1766 135.665 50.1597 135.574 50.1049L129.791 46.6501Z" fill="white"/>
<path d="M138.292 52.2899C138.212 52.2199 138.165 52.1368 138.152 52.0407C138.154 51.9438 138.192 51.8561 138.264 51.7776L145.343 44.0936C145.423 44.0073 145.508 43.9616 145.6 43.9566C145.707 43.9507 145.8 43.9828 145.881 44.0528L150.804 48.3395C150.893 48.4165 150.936 48.5035 150.933 48.6005C150.946 48.6966 150.913 48.7878 150.834 48.8741L150.4 49.3448C150.328 49.4232 150.238 49.4654 150.131 49.4713C150.039 49.4763 149.949 49.4403 149.861 49.3632L145.831 45.8541L143.305 48.5958L147.094 51.8949C147.182 51.972 147.225 52.0589 147.223 52.1559C147.236 52.252 147.203 52.3432 147.123 52.4295L146.689 52.9002C146.617 52.9786 146.528 53.0208 146.421 53.0267C146.321 53.0247 146.231 52.9887 146.15 52.9187L142.361 49.6196L139.434 52.7968C139.362 52.8752 139.272 52.9174 139.166 52.9233C139.066 52.9213 138.976 52.8853 138.895 52.8153L138.292 52.2899Z" fill="white"/>
<path d="M145.663 59.464C145.594 59.3827 145.56 59.2934 145.561 59.196C145.578 59.1 145.627 59.0182 145.71 58.9507L153.809 52.3253C153.892 52.2578 153.979 52.2281 154.07 52.2364C154.176 52.246 154.263 52.2914 154.332 52.3726L154.882 53.0186C154.951 53.0998 154.977 53.1885 154.961 53.2845C154.96 53.3819 154.918 53.4643 154.836 53.5319L146.736 60.1572C146.654 60.2248 146.559 60.2537 146.453 60.2441C146.362 60.2359 146.282 60.1912 146.213 60.1099L145.663 59.464Z" fill="white"/>
<path d="M151.471 67.8846C150.726 66.6648 150.488 65.5389 150.758 64.5069C151.033 63.4839 151.737 62.6013 152.871 61.8593C153.113 61.7021 153.513 61.4562 154.071 61.1216C154.638 60.7816 155.052 60.5393 155.314 60.3948C156.495 59.7493 157.609 59.5476 158.657 59.7899C159.714 60.0267 160.612 60.7504 161.352 61.9611C161.847 62.7712 162.12 63.5462 162.172 64.2861C162.233 65.0204 162.12 65.6731 161.831 66.2441C161.542 66.8151 161.141 67.2734 160.627 67.6188L160.6 67.6352C160.526 67.6791 160.443 67.6856 160.349 67.6548C160.27 67.6276 160.208 67.5776 160.164 67.5048L159.705 66.7539C159.594 66.5718 159.629 66.3949 159.812 66.2233C160.404 65.6572 160.714 65.0916 160.744 64.5266C160.783 63.956 160.597 63.334 160.185 62.6604C159.229 61.0947 157.86 60.8084 156.08 61.8014C155.827 61.9404 155.445 62.1634 154.932 62.4706C154.42 62.7777 154.034 63.0154 153.774 63.1835C152.06 64.2857 151.681 65.6196 152.638 67.1853C153.049 67.8589 153.515 68.3136 154.034 68.5496C154.568 68.7892 155.222 68.7761 155.997 68.5104C156.133 68.4664 156.24 68.458 156.319 68.4852C156.398 68.5124 156.466 68.5715 156.521 68.6625L156.98 69.4135C157.03 69.4954 157.044 69.5802 157.023 69.6677C157.016 69.7588 156.969 69.8245 156.881 69.8648C156.324 70.1611 155.724 70.3034 155.079 70.2919C154.435 70.2803 153.794 70.0801 153.156 69.6913C152.528 69.2969 151.966 68.6947 151.471 67.8846Z" fill="white"/>
<path d="M154.819 74.3437C154.778 74.2451 154.773 74.149 154.804 74.0553C154.848 73.9675 154.92 73.903 155.018 73.862L164.677 69.8367C164.775 69.7956 164.866 69.7924 164.95 69.8269C165.047 69.8672 165.116 69.9367 165.157 70.0353L165.481 70.8191C165.521 70.9177 165.519 71.0109 165.475 71.0988C165.444 71.1924 165.38 71.2598 165.281 71.3008L155.623 75.3261C155.524 75.3671 155.426 75.3675 155.329 75.3272C155.245 75.2927 155.183 75.2261 155.142 75.1275L154.819 74.3437Z" fill="white"/>
<path d="M156.993 80.5774C156.968 80.4738 156.977 80.3777 157.021 80.289C157.078 80.208 157.158 80.154 157.261 80.1271L167.371 77.4905C167.485 77.4609 167.58 77.4691 167.657 77.5151C167.747 77.5688 167.805 77.6474 167.831 77.751L169.407 84.1682C169.432 84.2718 169.417 84.3641 169.36 84.4451C169.315 84.5338 169.237 84.5929 169.123 84.6225L168.535 84.776C168.432 84.8029 168.336 84.7947 168.249 84.7514C168.171 84.7054 168.119 84.6254 168.091 84.5114L166.793 79.2285L163.403 80.1127L164.616 85.0539C164.642 85.1574 164.626 85.2497 164.569 85.3307C164.525 85.4194 164.446 85.4785 164.333 85.5081L163.76 85.6575C163.656 85.6845 163.56 85.6711 163.47 85.6174C163.393 85.5714 163.341 85.4966 163.316 85.393L162.102 80.4519L158.588 81.3685L159.916 86.7757C159.944 86.8897 159.935 86.9858 159.888 87.0641C159.841 87.1424 159.761 87.1964 159.648 87.226L159.044 87.3834C158.941 87.4104 158.844 87.397 158.754 87.3433C158.677 87.2973 158.625 87.2225 158.6 87.1189L156.993 80.5774Z" fill="white"/>
<path d="M158.818 90.4715C158.812 90.365 158.84 90.272 158.9 90.1926C158.971 90.1231 159.06 90.0843 159.166 90.0763L169.585 89.2895C169.702 89.2807 169.794 89.3058 169.861 89.3649C169.939 89.4339 169.981 89.5216 169.986 89.6281L170.022 90.3633C170.031 90.555 169.963 90.6938 169.818 90.7797L161.941 96.6998L169.919 96.0973C170.036 96.0885 170.127 96.1136 170.194 96.1727C170.273 96.2417 170.314 96.3294 170.319 96.436L170.357 97.2031C170.363 97.3202 170.33 97.4136 170.259 97.4832C170.198 97.5626 170.11 97.6067 169.993 97.6155L159.591 98.4011C159.484 98.4091 159.392 98.3786 159.314 98.3097C159.236 98.2514 159.195 98.169 159.19 98.0624L159.152 97.2953C159.144 97.1355 159.212 97.0021 159.357 96.8949L167.154 90.9968L159.241 91.5944C159.135 91.6025 159.042 91.572 158.964 91.5031C158.897 91.4333 158.86 91.3452 158.855 91.2386L158.818 90.4715Z" fill="white"/>
<path d="M158.288 104.448C158.303 104.342 158.347 104.256 158.421 104.189C158.505 104.133 158.599 104.111 158.705 104.123L168.061 105.119L168.492 102.077C168.507 101.972 168.552 101.885 168.626 101.818C168.709 101.763 168.804 101.74 168.91 101.752L169.578 101.823C169.684 101.834 169.77 101.876 169.835 101.947C169.899 102.029 169.923 102.122 169.908 102.228L168.824 109.863C168.808 109.98 168.758 110.065 168.675 110.121C168.601 110.188 168.505 110.215 168.389 110.203L167.72 110.132C167.614 110.12 167.529 110.074 167.466 109.992C167.413 109.911 167.393 109.818 167.408 109.713L167.838 106.687L158.483 105.691C158.377 105.68 158.292 105.633 158.228 105.551C158.175 105.471 158.156 105.377 158.171 105.272L158.288 104.448Z" fill="white"/>
<path d="M156.555 112.005C156.588 111.903 156.647 111.826 156.732 111.773C156.823 111.732 156.921 111.727 157.023 111.756L167.069 114.626C167.182 114.658 167.259 114.714 167.301 114.792C167.349 114.883 167.357 114.98 167.324 115.081L165.265 121.36C165.232 121.462 165.169 121.532 165.077 121.573C164.993 121.626 164.894 121.637 164.781 121.604L164.196 121.437C164.094 121.408 164.017 121.353 163.965 121.271C163.923 121.193 163.921 121.098 163.957 120.987L165.652 115.817L162.283 114.855L160.698 119.69C160.664 119.791 160.602 119.862 160.51 119.902C160.425 119.955 160.327 119.966 160.214 119.934L159.644 119.771C159.542 119.742 159.466 119.682 159.418 119.59C159.376 119.512 159.372 119.422 159.405 119.32L160.991 114.486L157.498 113.488L155.763 118.779C155.727 118.89 155.668 118.968 155.586 119.011C155.505 119.054 155.408 119.06 155.295 119.028L154.695 118.856C154.592 118.827 154.517 118.766 154.468 118.675C154.427 118.597 154.423 118.507 154.456 118.405L156.555 112.005Z" fill="white"/>
</svg>
