<svg width="198" height="48" viewBox="0 0 198 48" fill="none" xmlns="http://www.w3.org/2000/svg">
<path d="M63.2726 45.2905C61.5456 45.2905 60.0688 44.9919 58.8421 44.3947C57.6154 43.7814 56.6793 42.8372 56.0337 41.5621C55.4042 40.287 55.0895 38.6649 55.0895 36.6958C55.0895 33.7905 55.7996 31.6358 57.22 30.2316C58.6565 28.8112 60.674 28.1011 63.2726 28.1011C64.693 28.1011 65.9681 28.3432 67.0979 28.8274C68.2277 29.3116 69.1154 30.0379 69.7611 31.0063C70.4228 31.9747 70.7537 33.1933 70.7537 34.6621H67.1221C67.1221 33.8874 66.9607 33.2337 66.6379 32.7011C66.3312 32.1684 65.8874 31.7649 65.3063 31.4905C64.7414 31.2 64.0796 31.0547 63.3211 31.0547C62.2881 31.0547 61.4326 31.2565 60.7547 31.66C60.093 32.0635 59.6007 32.6607 59.2779 33.4516C58.9712 34.2263 58.8179 35.1786 58.8179 36.3084V37.0589C58.8179 38.2211 58.9793 39.1975 59.3021 39.9884C59.6249 40.7632 60.1091 41.3523 60.7547 41.7558C61.4165 42.1432 62.2639 42.3368 63.2968 42.3368C64.1039 42.3368 64.806 42.1996 65.4032 41.9253C66.0004 41.6509 66.4604 41.2474 66.7832 40.7147C67.106 40.1821 67.2674 39.5284 67.2674 38.7537H70.7537C70.7537 40.2225 70.4309 41.4411 69.7853 42.4095C69.1558 43.3779 68.2761 44.1042 67.1463 44.5884C66.0165 45.0565 64.7253 45.2905 63.2726 45.2905ZM79.1644 45.2905C77.7763 45.2905 76.5981 45.0565 75.6296 44.5884C74.6612 44.1042 73.9268 43.3698 73.4265 42.3853C72.9261 41.3846 72.676 40.1337 72.676 38.6326C72.676 37.0993 72.9261 35.8484 73.4265 34.88C73.9268 33.8954 74.6612 33.1691 75.6296 32.7011C76.5981 32.2168 77.7763 31.9747 79.1644 31.9747C80.5847 31.9747 81.7711 32.2168 82.7233 32.7011C83.6918 33.1691 84.4261 33.8954 84.9265 34.88C85.4268 35.8484 85.677 37.0993 85.677 38.6326C85.677 40.1337 85.4268 41.3846 84.9265 42.3853C84.4261 43.3698 83.6918 44.1042 82.7233 44.5884C81.7711 45.0565 80.5847 45.2905 79.1644 45.2905ZM79.1644 42.6758C79.9068 42.6758 80.496 42.5386 80.9318 42.2642C81.3837 41.9898 81.7146 41.5702 81.9244 41.0053C82.1342 40.4404 82.2391 39.7463 82.2391 38.9232V38.3421C82.2391 37.5189 82.1342 36.8249 81.9244 36.26C81.7146 35.6951 81.3837 35.2754 80.9318 35.0011C80.496 34.7105 79.9068 34.5653 79.1644 34.5653C78.4381 34.5653 77.8489 34.7105 77.397 35.0011C76.9612 35.2754 76.6384 35.6951 76.4286 36.26C76.2188 36.8249 76.1139 37.5189 76.1139 38.3421V38.9232C76.1139 39.7463 76.2188 40.4404 76.4286 41.0053C76.6384 41.5702 76.9612 41.9898 77.397 42.2642C77.8489 42.5386 78.4381 42.6758 79.1644 42.6758ZM88.1533 45V32.2653H90.9375L91.2038 34.0084H91.3733C91.6638 33.5888 92.0108 33.2256 92.4144 32.9189C92.834 32.6123 93.3021 32.3782 93.8186 32.2168C94.3351 32.0554 94.9 31.9747 95.5133 31.9747C96.3526 31.9747 97.087 32.1281 97.7165 32.4347C98.3459 32.7414 98.8301 33.2256 99.1691 33.8874C99.5242 34.5491 99.7017 35.4126 99.7017 36.4779V45H96.3365V37.0105C96.3365 36.607 96.288 36.2681 96.1912 35.9937C96.0944 35.7032 95.9491 35.4691 95.7554 35.2916C95.5779 35.0979 95.3519 34.9607 95.0775 34.88C94.8031 34.7993 94.4965 34.7589 94.1575 34.7589C93.6572 34.7589 93.2052 34.88 92.8017 35.1221C92.3982 35.3642 92.0835 35.6951 91.8575 36.1147C91.6315 36.5344 91.5186 37.0186 91.5186 37.5674V45H88.1533ZM106.518 45.2905C105.711 45.2905 105.058 45.1453 104.557 44.8547C104.057 44.5642 103.694 44.1768 103.468 43.6926C103.242 43.1923 103.129 42.6435 103.129 42.0463V34.8558H101.555V32.2653H103.25L103.88 28.6337H106.494V32.2653H108.818V34.8558H106.494V41.4895C106.494 41.8768 106.583 42.1754 106.761 42.3853C106.938 42.5789 107.229 42.6758 107.632 42.6758H108.818V44.9032C108.625 44.9677 108.399 45.0242 108.141 45.0726C107.882 45.1372 107.608 45.1856 107.317 45.2179C107.027 45.2663 106.761 45.2905 106.518 45.2905ZM110.993 45V32.2653H113.777L114.043 34.2505H114.213C114.374 33.8309 114.584 33.4516 114.842 33.1126C115.1 32.7575 115.423 32.4751 115.81 32.2653C116.198 32.0554 116.65 31.9505 117.166 31.9505C117.441 31.9505 117.691 31.9828 117.917 32.0474C118.143 32.0958 118.312 32.1442 118.425 32.1926V35.2432H117.384C116.884 35.2432 116.44 35.3158 116.053 35.4611C115.681 35.5902 115.367 35.8 115.108 36.0905C114.85 36.3811 114.656 36.7361 114.527 37.1558C114.414 37.5754 114.358 38.0677 114.358 38.6326V45H110.993ZM120.19 30.4011V27.4958H123.555V30.4011H120.19ZM120.19 45V32.2653H123.555V45H120.19ZM133.762 45.2905C132.939 45.2905 132.18 45.1291 131.486 44.8063C130.808 44.4674 130.26 43.9589 129.84 43.2811H129.671L129.404 45H126.644V27.4958H130.01V33.6695H130.155C130.413 33.2982 130.728 32.9835 131.099 32.7253C131.47 32.467 131.89 32.2814 132.358 32.1684C132.826 32.0393 133.334 31.9747 133.883 31.9747C134.884 31.9747 135.755 32.2088 136.498 32.6768C137.257 33.1449 137.846 33.8712 138.265 34.8558C138.685 35.8242 138.895 37.0751 138.895 38.6084C138.895 40.1418 138.685 41.4007 138.265 42.3853C137.862 43.3698 137.273 44.1042 136.498 44.5884C135.739 45.0565 134.827 45.2905 133.762 45.2905ZM132.721 42.5305C133.399 42.5305 133.932 42.4014 134.319 42.1432C134.723 41.8688 135.013 41.4653 135.191 40.9326C135.368 40.4 135.457 39.7302 135.457 38.9232V38.3663C135.457 37.5593 135.368 36.8895 135.191 36.3568C135.013 35.8081 134.723 35.4046 134.319 35.1463C133.932 34.8719 133.399 34.7347 132.721 34.7347C132.237 34.7347 131.825 34.8235 131.486 35.0011C131.147 35.1625 130.865 35.4046 130.639 35.7274C130.429 36.034 130.268 36.4214 130.155 36.8895C130.042 37.3575 129.985 37.874 129.985 38.4389V38.8747C129.985 39.6333 130.082 40.287 130.276 40.8358C130.47 41.3846 130.768 41.8042 131.172 42.0947C131.575 42.3853 132.092 42.5305 132.721 42.5305ZM145.49 45.2905C144.198 45.2905 143.174 44.9354 142.415 44.2253C141.656 43.5151 141.277 42.3691 141.277 40.7874V32.2653H144.642V40.2305C144.642 40.6502 144.691 41.0053 144.788 41.2958C144.884 41.5702 145.022 41.7961 145.199 41.9737C145.393 42.1512 145.627 42.2804 145.901 42.3611C146.176 42.4418 146.482 42.4821 146.821 42.4821C147.322 42.4821 147.774 42.3611 148.177 42.1189C148.581 41.8768 148.895 41.546 149.121 41.1263C149.347 40.6905 149.46 40.2063 149.46 39.6737V32.2653H152.825V45H150.065L149.823 43.2568H149.654C149.347 43.6604 148.984 44.0154 148.564 44.3221C148.161 44.6288 147.701 44.8628 147.184 45.0242C146.668 45.2018 146.103 45.2905 145.49 45.2905ZM155.914 30.4011V27.4958H159.28V30.4011H155.914ZM155.914 45V32.2653H159.28V45H155.914ZM162.369 45V32.2653H165.153L165.419 34.0084H165.589C165.879 33.5888 166.227 33.2256 166.63 32.9189C167.05 32.6123 167.518 32.3782 168.034 32.2168C168.551 32.0554 169.116 31.9747 169.729 31.9747C170.568 31.9747 171.303 32.1281 171.932 32.4347C172.562 32.7414 173.046 33.2256 173.385 33.8874C173.74 34.5491 173.917 35.4126 173.917 36.4779V45H170.552V37.0105C170.552 36.607 170.504 36.2681 170.407 35.9937C170.31 35.7032 170.165 35.4691 169.971 35.2916C169.794 35.0979 169.568 34.9607 169.293 34.88C169.019 34.7993 168.712 34.7589 168.373 34.7589C167.873 34.7589 167.421 34.88 167.017 35.1221C166.614 35.3642 166.299 35.6951 166.073 36.1147C165.847 36.5344 165.734 37.0186 165.734 37.5674V45H162.369ZM180.734 45.2905C179.927 45.2905 179.273 45.1453 178.773 44.8547C178.273 44.5642 177.91 44.1768 177.684 43.6926C177.458 43.1923 177.345 42.6435 177.345 42.0463V34.8558H175.771V32.2653H177.466L178.095 28.6337H180.71V32.2653H183.034V34.8558H180.71V41.4895C180.71 41.8768 180.799 42.1754 180.976 42.3853C181.154 42.5789 181.444 42.6758 181.848 42.6758H183.034V44.9032C182.84 44.9677 182.615 45.0242 182.356 45.0726C182.098 45.1372 181.824 45.1856 181.533 45.2179C181.243 45.2663 180.976 45.2905 180.734 45.2905ZM190.995 45.2905C189.59 45.2905 188.412 45.0565 187.46 44.5884C186.507 44.1042 185.789 43.3698 185.305 42.3853C184.821 41.4007 184.579 40.1498 184.579 38.6326C184.579 37.0993 184.821 35.8484 185.305 34.88C185.789 33.8954 186.499 33.1691 187.436 32.7011C188.388 32.2168 189.55 31.9747 190.922 31.9747C192.213 31.9747 193.303 32.2088 194.19 32.6768C195.078 33.1288 195.748 33.8389 196.2 34.8074C196.652 35.7596 196.878 36.9944 196.878 38.5116V39.3832H187.992C188.025 40.1256 188.138 40.7551 188.331 41.2716C188.541 41.7881 188.856 42.1754 189.276 42.4337C189.711 42.6758 190.284 42.7968 190.995 42.7968C191.382 42.7968 191.729 42.7484 192.036 42.6516C192.358 42.5547 192.633 42.4095 192.859 42.2158C193.085 42.0221 193.262 41.78 193.391 41.4895C193.52 41.1989 193.585 40.8681 193.585 40.4968H196.878C196.878 41.3039 196.732 42.006 196.442 42.6032C196.151 43.2004 195.748 43.7007 195.231 44.1042C194.715 44.4916 194.093 44.7902 193.367 45C192.657 45.1937 191.866 45.2905 190.995 45.2905ZM188.041 37.2526H193.416C193.416 36.7684 193.351 36.3488 193.222 35.9937C193.109 35.6386 192.947 35.3481 192.738 35.1221C192.528 34.8961 192.27 34.7347 191.963 34.6379C191.672 34.5249 191.342 34.4684 190.97 34.4684C190.357 34.4684 189.84 34.5733 189.421 34.7832C189.017 34.9768 188.703 35.2835 188.477 35.7032C188.267 36.1067 188.122 36.6232 188.041 37.2526Z" fill="#00325C"/>
<path d="M55.1854 21.1827V10.483H60.7536C61.523 10.483 62.1625 10.6286 62.672 10.9197C63.1919 11.2005 63.5819 11.6008 63.8418 12.1207C64.1122 12.6302 64.2473 13.2385 64.2473 13.9456C64.2473 14.6527 64.107 15.2714 63.8262 15.8017C63.5559 16.3216 63.1555 16.7271 62.6252 17.0182C62.0949 17.3094 61.445 17.455 60.6756 17.455H57.5094V21.1827H55.1854ZM57.5094 15.5521H60.3636C60.8524 15.5521 61.2267 15.4117 61.4866 15.131C61.757 14.8502 61.8922 14.4603 61.8922 13.9612C61.8922 13.6181 61.835 13.3321 61.7206 13.1033C61.6062 12.8746 61.4346 12.6978 61.2059 12.573C60.9875 12.4483 60.7068 12.3859 60.3636 12.3859H57.5094V15.5521ZM69.2064 21.3698C68.3121 21.3698 67.5531 21.2191 66.9292 20.9175C66.3053 20.6056 65.8322 20.1325 65.5099 19.4982C65.1875 18.8535 65.0263 18.0476 65.0263 17.0806C65.0263 16.0928 65.1875 15.2869 65.5099 14.6631C65.8322 14.0288 66.3053 13.5609 66.9292 13.2593C67.5531 12.9474 68.3121 12.7914 69.2064 12.7914C70.1214 12.7914 70.8857 12.9474 71.4992 13.2593C72.1231 13.5609 72.5962 14.0288 72.9185 14.6631C73.2409 15.2869 73.402 16.0928 73.402 17.0806C73.402 18.0476 73.2409 18.8535 72.9185 19.4982C72.5962 20.1325 72.1231 20.6056 71.4992 20.9175C70.8857 21.2191 70.1214 21.3698 69.2064 21.3698ZM69.2064 19.6854C69.6847 19.6854 70.0642 19.597 70.345 19.4202C70.6361 19.2434 70.8493 18.9731 70.9845 18.6091C71.1196 18.2452 71.1872 17.7981 71.1872 17.2678V16.8935C71.1872 16.3632 71.1196 15.916 70.9845 15.5521C70.8493 15.1882 70.6361 14.9178 70.345 14.741C70.0642 14.5539 69.6847 14.4603 69.2064 14.4603C68.7385 14.4603 68.3589 14.5539 68.0678 14.741C67.787 14.9178 67.5791 15.1882 67.4439 15.5521C67.3087 15.916 67.2411 16.3632 67.2411 16.8935V17.2678C67.2411 17.7981 67.3087 18.2452 67.4439 18.6091C67.5791 18.9731 67.787 19.2434 68.0678 19.4202C68.3589 19.597 68.7385 19.6854 69.2064 19.6854ZM74.9973 21.1827V12.9786H76.791L76.9626 14.2575H77.0717C77.1757 13.9872 77.3109 13.7428 77.4773 13.5245C77.6436 13.2957 77.8516 13.1137 78.1012 12.9786C78.3507 12.8434 78.6419 12.7758 78.9746 12.7758C79.1514 12.7758 79.3125 12.7966 79.4581 12.8382C79.6037 12.8694 79.7129 12.9006 79.7857 12.9318V14.897H79.115C78.7926 14.897 78.5067 14.9438 78.2571 15.0374C78.018 15.1206 77.8152 15.2558 77.6488 15.4429C77.4825 15.6301 77.3577 15.8588 77.2745 16.1292C77.2017 16.3995 77.1653 16.7167 77.1653 17.0806V21.1827H74.9973ZM83.3712 21.3698C82.8513 21.3698 82.4301 21.2763 82.1078 21.0891C81.7855 20.9019 81.5515 20.6524 81.4059 20.3404C81.2604 20.0181 81.1876 19.6646 81.1876 19.2798V14.6475H80.1738V12.9786H81.2656L81.6711 10.639H83.3556V12.9786H84.8529V14.6475H83.3556V18.9211C83.3556 19.1706 83.4128 19.363 83.5271 19.4982C83.6415 19.623 83.8287 19.6854 84.0886 19.6854H84.8529V21.1203C84.7281 21.1619 84.5826 21.1983 84.4162 21.2295C84.2498 21.2711 84.073 21.3023 83.8859 21.3231C83.6987 21.3542 83.5271 21.3698 83.3712 21.3698ZM88.4215 21.3698C88.1511 21.3698 87.86 21.3386 87.548 21.2763C87.2465 21.2139 86.9606 21.1047 86.6902 20.9487C86.4198 20.7824 86.1963 20.5484 86.0195 20.2468C85.8532 19.9349 85.77 19.5398 85.77 19.0615C85.77 18.4896 85.8947 18.0165 86.1443 17.6421C86.3939 17.2678 86.7474 16.9766 87.2049 16.7687C87.6728 16.5503 88.2291 16.3995 88.8738 16.3164C89.5185 16.2332 90.2308 16.1916 91.0106 16.1916V15.5833C91.0106 15.3441 90.969 15.1362 90.8858 14.9594C90.8131 14.7826 90.6779 14.6423 90.4803 14.5383C90.2931 14.4343 90.028 14.3823 89.6849 14.3823C89.3417 14.3823 89.061 14.4239 88.8426 14.5071C88.6346 14.5903 88.4839 14.6995 88.3903 14.8346C88.3071 14.9594 88.2655 15.0998 88.2655 15.2558V15.4429H86.1599C86.1495 15.3909 86.1443 15.3441 86.1443 15.3025C86.1443 15.2506 86.1443 15.1882 86.1443 15.1154C86.1443 14.6371 86.2899 14.2263 86.581 13.8832C86.8722 13.5297 87.2829 13.2593 87.8132 13.0722C88.3435 12.885 88.9622 12.7914 89.6693 12.7914C90.4283 12.7914 91.0626 12.8902 91.5721 13.0877C92.092 13.2853 92.4871 13.5765 92.7575 13.9612C93.0382 14.3459 93.1786 14.8294 93.1786 15.4117V19.1394C93.1786 19.3266 93.2306 19.467 93.3346 19.5606C93.449 19.6438 93.5738 19.6854 93.7089 19.6854H94.2236V21.1047C94.1197 21.1567 93.9585 21.2087 93.7401 21.2607C93.5218 21.3231 93.2566 21.3542 92.9447 21.3542C92.6431 21.3542 92.3728 21.3075 92.1336 21.2139C91.9049 21.1307 91.7125 21.0111 91.5565 20.8551C91.4005 20.6888 91.2914 20.4912 91.229 20.2624H91.1198C90.943 20.4808 90.7247 20.6732 90.4647 20.8395C90.2152 21.0059 89.9188 21.1359 89.5757 21.2295C89.2429 21.3231 88.8582 21.3698 88.4215 21.3698ZM89.1546 19.7321C89.4457 19.7321 89.7057 19.6905 89.9344 19.6074C90.1632 19.5138 90.3555 19.3942 90.5115 19.2486C90.6675 19.0927 90.7871 18.9055 90.8702 18.6871C90.9638 18.4688 91.0106 18.2348 91.0106 17.9853V17.5329C90.4283 17.5329 89.9084 17.5745 89.4509 17.6577C88.9934 17.7305 88.6294 17.8605 88.3591 18.0476C88.0991 18.2348 87.9692 18.4948 87.9692 18.8275C87.9692 19.0147 88.016 19.1758 88.1095 19.311C88.2031 19.4462 88.3383 19.5502 88.5151 19.623C88.6918 19.6957 88.905 19.7321 89.1546 19.7321ZM95.3011 21.1827V9.90593H97.4691V21.1827H95.3011ZM105.422 21.3698C104.746 21.3698 104.159 21.2191 103.659 20.9175C103.171 20.6056 102.791 20.1325 102.521 19.4982C102.25 18.8639 102.115 18.0528 102.115 17.065C102.115 16.0772 102.25 15.2714 102.521 14.6475C102.802 14.0132 103.181 13.5453 103.659 13.2437C104.148 12.9422 104.71 12.7914 105.344 12.7914C105.697 12.7914 106.025 12.833 106.327 12.9162C106.638 12.989 106.909 13.1085 107.138 13.2749C107.377 13.4413 107.58 13.644 107.746 13.8832H107.839V9.90593H110.007V21.1827H108.229L108.058 20.0753H107.949C107.678 20.512 107.325 20.8395 106.888 21.0579C106.451 21.2659 105.963 21.3698 105.422 21.3698ZM106.108 19.5918C106.514 19.5918 106.841 19.4982 107.091 19.311C107.351 19.1239 107.543 18.8535 107.668 18.5C107.793 18.1464 107.855 17.7253 107.855 17.2366V16.9558C107.855 16.5919 107.819 16.2592 107.746 15.9576C107.683 15.6561 107.58 15.4065 107.434 15.209C107.288 15.001 107.106 14.845 106.888 14.741C106.67 14.6267 106.41 14.5695 106.108 14.5695C105.671 14.5695 105.323 14.6579 105.063 14.8346C104.803 15.001 104.616 15.261 104.502 15.6145C104.387 15.9576 104.33 16.3891 104.33 16.9091V17.2678C104.33 17.7877 104.387 18.2192 104.502 18.5624C104.616 18.9055 104.803 19.1654 105.063 19.3422C105.323 19.5086 105.671 19.5918 106.108 19.5918ZM115.785 21.3698C114.89 21.3698 114.131 21.2191 113.507 20.9175C112.884 20.6056 112.41 20.1325 112.088 19.4982C111.766 18.8535 111.605 18.0476 111.605 17.0806C111.605 16.0928 111.766 15.2869 112.088 14.6631C112.41 14.0288 112.884 13.5609 113.507 13.2593C114.131 12.9474 114.89 12.7914 115.785 12.7914C116.7 12.7914 117.464 12.9474 118.077 13.2593C118.701 13.5609 119.174 14.0288 119.497 14.6631C119.819 15.2869 119.98 16.0928 119.98 17.0806C119.98 18.0476 119.819 18.8535 119.497 19.4982C119.174 20.1325 118.701 20.6056 118.077 20.9175C117.464 21.2191 116.7 21.3698 115.785 21.3698ZM115.785 19.6854C116.263 19.6854 116.642 19.597 116.923 19.4202C117.214 19.2434 117.428 18.9731 117.563 18.6091C117.698 18.2452 117.765 17.7981 117.765 17.2678V16.8935C117.765 16.3632 117.698 15.916 117.563 15.5521C117.428 15.1882 117.214 14.9178 116.923 14.741C116.642 14.5539 116.263 14.4603 115.785 14.4603C115.317 14.4603 114.937 14.5539 114.646 14.741C114.365 14.9178 114.157 15.1882 114.022 15.5521C113.887 15.916 113.819 16.3632 113.819 16.8935V17.2678C113.819 17.7981 113.887 18.2452 114.022 18.6091C114.157 18.9731 114.365 19.2434 114.646 19.4202C114.937 19.597 115.317 19.6854 115.785 19.6854Z" fill="#00325C"/>
<path d="M19.084 42.584C10.3949 40.5806 3.91675 32.7962 3.91675 23.5C3.91675 12.6841 12.6842 3.91669 23.5001 3.91669C34.316 3.91669 43.0834 12.6841 43.0834 23.5C43.0834 32.7962 36.6052 40.5806 27.9161 42.584L23.5001 47L19.084 42.584ZM13.7319 35.7533C15.5567 37.2126 17.6864 38.2427 19.9633 38.7672L21.06 39.0198L23.5001 41.4619L25.9421 39.0198L27.0388 38.7652C29.4644 38.2061 31.7207 37.0739 33.6188 35.4635C32.3435 34.1545 30.8187 33.1145 29.1345 32.4051C27.4503 31.6957 25.6409 31.3313 23.8134 31.3334C19.8262 31.3334 16.2347 33.0371 13.7319 35.7533ZM10.9981 32.9392C12.644 31.1925 14.6301 29.8014 16.8342 28.8516C19.0382 27.9018 21.4134 27.4135 23.8134 27.4167C26.1275 27.4137 28.4193 27.8678 30.5574 28.753C32.6955 29.6382 34.6376 30.9371 36.2723 32.5749C37.9488 30.2154 38.9389 27.4375 39.1326 24.5495C39.3264 21.6615 38.7162 18.7763 37.37 16.214C36.0237 13.6516 33.9938 11.5123 31.5057 10.0334C29.0175 8.55454 26.1683 7.79387 23.2741 7.83581C20.3799 7.87774 17.5539 8.72064 15.1096 10.271C12.6654 11.8214 10.6984 14.0186 9.42689 16.6188C8.15541 19.2191 7.62915 22.1208 7.90649 25.002C8.18383 27.8831 9.25394 30.6312 10.9981 32.9411V32.9392ZM23.5001 25.4584C21.4226 25.4584 19.4301 24.6331 17.9611 23.164C16.492 21.695 15.6667 19.7026 15.6667 17.625C15.6667 15.5475 16.492 13.5551 17.9611 12.086C19.4301 10.617 21.4226 9.79169 23.5001 9.79169C25.5776 9.79169 27.57 10.617 29.0391 12.086C30.5081 13.5551 31.3334 15.5475 31.3334 17.625C31.3334 19.7026 30.5081 21.695 29.0391 23.164C27.57 24.6331 25.5776 25.4584 23.5001 25.4584ZM23.5001 21.5417C24.5388 21.5417 25.5351 21.129 26.2696 20.3945C27.0041 19.66 27.4167 18.6638 27.4167 17.625C27.4167 16.5863 27.0041 15.59 26.2696 14.8555C25.5351 14.121 24.5388 13.7084 23.5001 13.7084C22.4613 13.7084 21.4651 14.121 20.7306 14.8555C19.9961 15.59 19.5834 16.5863 19.5834 17.625C19.5834 18.6638 19.9961 19.66 20.7306 20.3945C21.4651 21.129 22.4613 21.5417 23.5001 21.5417Z" fill="#004B8B"/>
</svg>
