<svg width="622" height="173" viewBox="0 0 622 173" fill="none" xmlns="http://www.w3.org/2000/svg">
<path d="M19.7155 53.7598V65.0889H42.4471V76.3443H19.7155V94H5.14957V42.5043H45.5369V53.7598H19.7155ZM84.8397 83.9951H63.0644L59.0183 94H44.1581L66.8898 42.5043H81.235L104.04 94H88.8858L84.8397 83.9951ZM80.5729 73.2546L73.952 56.776L67.3311 73.2546H80.5729ZM151.72 82.4503V94H105.595V84.8779L131.563 54.0541H106.257V42.5043H150.617V51.6264L124.648 82.4503H151.72ZM199.443 82.7445V94H158.099V42.5043H198.486V53.7598H172.518V62.4405H195.397V73.3282H172.518V82.7445H199.443ZM256.52 42.5043V94H244.529L221.797 66.5602V94H207.526V42.5043H219.517L242.249 69.9442V42.5043H256.52ZM266.795 42.5043H291.145C296.785 42.5043 301.787 43.5588 306.152 45.6676C310.517 47.7765 313.901 50.7682 316.304 54.6426C318.707 58.517 319.909 63.0536 319.909 68.2522C319.909 73.4508 318.707 77.9873 316.304 81.8617C313.901 85.7362 310.517 88.7278 306.152 90.8367C301.787 92.9456 296.785 94 291.145 94H266.795V42.5043ZM290.556 82.3767C294.97 82.3767 298.501 81.1261 301.15 78.6249C303.847 76.1236 305.196 72.6661 305.196 68.2522C305.196 63.8383 303.847 60.3807 301.15 57.8795C298.501 55.3783 294.97 54.1276 290.556 54.1276H281.361V82.3767H290.556ZM361.356 83.9951H339.581L335.534 94H320.674L343.406 42.5043H357.751L380.556 94H365.402L361.356 83.9951ZM357.089 73.2546L350.468 56.776L343.847 73.2546H357.089ZM46.4932 153.745V165H5.14957V113.504H45.5369V124.76H19.5683V133.441H42.4471V144.328H19.5683V153.745H46.4932ZM86.9461 125.054H71.1295V113.504H117.255V125.054H101.512V165H86.9461V125.054ZM164.025 153.745V165H122.682V113.504H163.069V124.76H137.1V133.441H159.979V144.328H137.1V153.745H164.025ZM197.711 166.03C192.316 166.03 187.46 164.902 183.145 162.646C178.878 160.341 175.518 157.153 173.066 153.082C170.614 149.012 169.388 144.402 169.388 139.252C169.388 134.103 170.614 129.493 173.066 125.422C175.518 121.351 178.878 118.188 183.145 115.932C187.46 113.627 192.316 112.474 197.711 112.474C202.419 112.474 206.661 113.308 210.437 114.976C214.214 116.643 217.352 119.046 219.854 122.185L210.584 130.571C207.25 126.55 203.203 124.539 198.446 124.539C195.651 124.539 193.15 125.152 190.943 126.378C188.785 127.604 187.093 129.345 185.867 131.601C184.69 133.808 184.101 136.359 184.101 139.252C184.101 142.146 184.69 144.721 185.867 146.977C187.093 149.183 188.785 150.9 190.943 152.126C193.15 153.352 195.651 153.965 198.446 153.965C203.203 153.965 207.25 151.954 210.584 147.933L219.854 156.319C217.352 159.458 214.214 161.861 210.437 163.529C206.661 165.196 202.419 166.03 197.711 166.03ZM275.343 113.504V165H263.351L240.62 137.56V165H226.348V113.504H238.339L261.071 140.944V113.504H275.343ZM311.585 166.03C306.142 166.03 301.237 164.877 296.872 162.572C292.557 160.267 289.148 157.079 286.647 153.009C284.195 148.938 282.969 144.353 282.969 139.252C282.969 134.152 284.195 129.566 286.647 125.495C289.148 121.425 292.557 118.237 296.872 115.932C301.237 113.627 306.142 112.474 311.585 112.474C317.029 112.474 321.909 113.627 326.225 115.932C330.59 118.237 333.998 121.425 336.451 125.495C338.952 129.566 340.202 134.152 340.202 139.252C340.202 144.353 338.952 148.938 336.451 153.009C333.998 157.079 330.59 160.267 326.225 162.572C321.909 164.877 317.029 166.03 311.585 166.03ZM311.585 153.965C314.185 153.965 316.539 153.352 318.648 152.126C320.757 150.9 322.424 149.183 323.65 146.977C324.876 144.721 325.489 142.146 325.489 139.252C325.489 136.359 324.876 133.808 323.65 131.601C322.424 129.345 320.757 127.604 318.648 126.378C316.539 125.152 314.185 124.539 311.585 124.539C308.986 124.539 306.632 125.152 304.523 126.378C302.414 127.604 300.747 129.345 299.521 131.601C298.295 133.808 297.682 136.359 297.682 139.252C297.682 142.146 298.295 144.721 299.521 146.977C300.747 149.183 302.414 150.9 304.523 152.126C306.632 153.352 308.986 153.965 311.585 153.965ZM347.831 113.504H362.397V153.45H386.968V165H347.831V113.504ZM417.91 166.03C412.466 166.03 407.562 164.877 403.197 162.572C398.881 160.267 395.473 157.079 392.972 153.009C390.519 148.938 389.293 144.353 389.293 139.252C389.293 134.152 390.519 129.566 392.972 125.495C395.473 121.425 398.881 118.237 403.197 115.932C407.562 113.627 412.466 112.474 417.91 112.474C423.354 112.474 428.234 113.627 432.55 115.932C436.915 118.237 440.323 121.425 442.775 125.495C445.277 129.566 446.527 134.152 446.527 139.252C446.527 144.353 445.277 148.938 442.775 153.009C440.323 157.079 436.915 160.267 432.55 162.572C428.234 164.877 423.354 166.03 417.91 166.03ZM417.91 153.965C420.51 153.965 422.864 153.352 424.972 152.126C427.081 150.9 428.749 149.183 429.975 146.977C431.201 144.721 431.814 142.146 431.814 139.252C431.814 136.359 431.201 133.808 429.975 131.601C428.749 129.345 427.081 127.604 424.972 126.378C422.864 125.152 420.51 124.539 417.91 124.539C415.311 124.539 412.957 125.152 410.848 126.378C408.739 127.604 407.072 129.345 405.846 131.601C404.619 133.808 404.006 136.359 404.006 139.252C404.006 142.146 404.619 144.721 405.846 146.977C407.072 149.183 408.739 150.9 410.848 152.126C412.957 153.352 415.311 153.965 417.91 153.965ZM488.658 138.149H501.532V159.483C498.589 161.591 495.205 163.21 491.38 164.338C487.555 165.466 483.729 166.03 479.904 166.03C474.509 166.03 469.654 164.902 465.338 162.646C461.022 160.341 457.638 157.153 455.186 153.082C452.734 149.012 451.508 144.402 451.508 139.252C451.508 134.103 452.734 129.493 455.186 125.422C457.638 121.351 461.047 118.188 465.412 115.932C469.776 113.627 474.705 112.474 480.198 112.474C485.004 112.474 489.32 113.284 493.146 114.902C496.971 116.521 500.159 118.85 502.709 121.891L493.44 130.277C489.958 126.452 485.789 124.539 480.934 124.539C476.52 124.539 472.964 125.888 470.267 128.585C467.569 131.234 466.221 134.789 466.221 139.252C466.221 142.097 466.834 144.647 468.06 146.903C469.286 149.11 471.003 150.851 473.209 152.126C475.416 153.352 477.942 153.965 480.787 153.965C483.582 153.965 486.206 153.401 488.658 152.273V138.149ZM510.767 113.504H525.333V165H510.767V113.504ZM570.198 154.995H548.422L544.376 165H529.516L552.248 113.504H566.593L589.398 165H574.244L570.198 154.995ZM565.931 144.255L559.31 127.776L552.689 144.255H565.931Z" fill="white"/>
<path d="M12.764 24.336C11.2147 24.336 9.712 24.1307 8.256 23.72C6.81867 23.2907 5.66133 22.74 4.784 22.068L6.324 18.652C7.164 19.268 8.16267 19.7627 9.32 20.136C10.4773 20.5093 11.6347 20.696 12.792 20.696C14.08 20.696 15.032 20.5093 15.648 20.136C16.264 19.744 16.572 19.2307 16.572 18.596C16.572 18.1293 16.3853 17.7467 16.012 17.448C15.6573 17.1307 15.1907 16.8787 14.612 16.692C14.052 16.5053 13.2867 16.3 12.316 16.076C10.8227 15.7213 9.6 15.3667 8.648 15.012C7.696 14.6573 6.87467 14.088 6.184 13.304C5.512 12.52 5.176 11.4747 5.176 10.168C5.176 9.02933 5.484 8.00267 6.1 7.088C6.716 6.15467 7.64 5.41733 8.872 4.876C10.1227 4.33467 11.644 4.064 13.436 4.064C14.6867 4.064 15.9093 4.21333 17.104 4.512C18.2987 4.81067 19.344 5.24 20.24 5.8L18.84 9.244C17.0293 8.21733 15.2187 7.704 13.408 7.704C12.1387 7.704 11.196 7.90933 10.58 8.32C9.98267 8.73067 9.684 9.272 9.684 9.944C9.684 10.616 10.0293 11.12 10.72 11.456C11.4293 11.7733 12.5027 12.0907 13.94 12.408C15.4333 12.7627 16.656 13.1173 17.608 13.472C18.56 13.8267 19.372 14.3867 20.044 15.152C20.7347 15.9173 21.08 16.9533 21.08 18.26C21.08 19.38 20.7627 20.4067 20.128 21.34C19.512 22.2547 18.5787 22.9827 17.328 23.524C16.0773 24.0653 14.556 24.336 12.764 24.336ZM45.6555 20.36V24H30.4795V4.4H45.2915V8.04H34.9875V12.296H44.0875V15.824H34.9875V20.36H45.6555ZM64.8899 24.336C62.8926 24.336 61.0819 23.9067 59.4579 23.048C57.8526 22.1707 56.5833 20.9667 55.6499 19.436C54.7353 17.8867 54.2779 16.1413 54.2779 14.2C54.2779 12.2587 54.7353 10.5227 55.6499 8.992C56.5833 7.44267 57.8526 6.23867 59.4579 5.38C61.0819 4.50267 62.9019 4.064 64.9179 4.064C66.6166 4.064 68.1473 4.36267 69.5099 4.96C70.8913 5.55733 72.0486 6.416 72.9819 7.536L70.0699 10.224C68.7446 8.69333 67.1019 7.928 65.1419 7.928C63.9286 7.928 62.8459 8.19867 61.8939 8.74C60.9419 9.26267 60.1953 10 59.6539 10.952C59.1313 11.904 58.8699 12.9867 58.8699 14.2C58.8699 15.4133 59.1313 16.496 59.6539 17.448C60.1953 18.4 60.9419 19.1467 61.8939 19.688C62.8459 20.2107 63.9286 20.472 65.1419 20.472C67.1019 20.472 68.7446 19.6973 70.0699 18.148L72.9819 20.836C72.0486 21.9747 70.8913 22.8427 69.5099 23.44C68.1286 24.0373 66.5886 24.336 64.8899 24.336ZM94.8331 24L91.0531 18.54H90.8291H86.8811V24H82.3451V4.4H90.8291C92.5651 4.4 94.0678 4.68933 95.3371 5.268C96.6251 5.84667 97.6144 6.668 98.3051 7.732C98.9958 8.796 99.3411 10.056 99.3411 11.512C99.3411 12.968 98.9864 14.228 98.2771 15.292C97.5864 16.3373 96.5971 17.14 95.3091 17.7L99.7051 24H94.8331ZM94.7491 11.512C94.7491 10.4107 94.3944 9.57067 93.6851 8.992C92.9758 8.39467 91.9398 8.096 90.5771 8.096H86.8811V14.928H90.5771C91.9398 14.928 92.9758 14.6293 93.6851 14.032C94.3944 13.4347 94.7491 12.5947 94.7491 11.512ZM124.411 20.36V24H109.235V4.4H124.047V8.04H113.743V12.296H122.843V15.824H113.743V20.36H124.411ZM138.38 8.096H132.108V4.4H149.188V8.096H142.916V24H138.38V8.096ZM169.852 19.8H160.752L159.016 24H154.368L163.104 4.4H167.584L176.348 24H171.588L169.852 19.8ZM168.424 16.356L165.316 8.852L162.208 16.356H168.424ZM197.17 24L193.39 18.54H193.166H189.218V24H184.682V4.4H193.166C194.902 4.4 196.404 4.68933 197.674 5.268C198.962 5.84667 199.951 6.668 200.642 7.732C201.332 8.796 201.678 10.056 201.678 11.512C201.678 12.968 201.323 14.228 200.614 15.292C199.923 16.3373 198.934 17.14 197.646 17.7L202.042 24H197.17ZM197.086 11.512C197.086 10.4107 196.731 9.57067 196.022 8.992C195.312 8.39467 194.276 8.096 192.914 8.096H189.218V14.928H192.914C194.276 14.928 195.312 14.6293 196.022 14.032C196.731 13.4347 197.086 12.5947 197.086 11.512ZM211.572 4.4H216.108V24H211.572V4.4ZM239.967 19.8H230.867L229.131 24H224.483L233.219 4.4H237.699L246.463 24H241.703L239.967 19.8ZM238.539 16.356L235.431 8.852L232.323 16.356H238.539ZM269.026 4.4H277.93C280.058 4.4 281.934 4.81067 283.558 5.632C285.201 6.43467 286.47 7.57333 287.366 9.048C288.281 10.5227 288.738 12.24 288.738 14.2C288.738 16.16 288.281 17.8773 287.366 19.352C286.47 20.8267 285.201 21.9747 283.558 22.796C281.934 23.5987 280.058 24 277.93 24H269.026V4.4ZM277.706 20.276C279.666 20.276 281.225 19.7347 282.382 18.652C283.558 17.5507 284.146 16.0667 284.146 14.2C284.146 12.3333 283.558 10.8587 282.382 9.776C281.225 8.67467 279.666 8.124 277.706 8.124H273.562V20.276H277.706ZM313.635 20.36V24H298.459V4.4H313.271V8.04H302.967V12.296H312.067V15.824H302.967V20.36H313.635Z" fill="white"/>
</svg>
